<svg width="800" height="600" viewBox="0 0 800 600" xmlns="http://www.w3.org/2000/svg">
  <!-- Background Shapes -->
  <defs>
    <linearGradient id="grad1" x1="0%" y1="0%" x2="100%" y2="100%">
      <stop offset="0%" style="stop-color:#6366f1;stop-opacity:0.2"/>
      <stop offset="100%" style="stop-color:#818cf8;stop-opacity:0.1"/>
    </linearGradient>
  </defs>
  
  <!-- Abstract Collaboration Shapes -->
  <g transform="translate(400,300)">
    <!-- Central Hub -->
    <circle cx="0" cy="0" r="80" fill="url(#grad1)" stroke="#6366f1" stroke-width="2"/>
    
    <!-- Connected Nodes -->
    <g id="nodes">
      <!-- Node 1 -->
      <g transform="rotate(0)">
        <line x1="90" y1="0" x2="160" y2="0" stroke="#6366f1" stroke-width="2"/>
        <circle cx="180" cy="0" r="20" fill="white" stroke="#6366f1" stroke-width="2"/>
      </g>
      
      <!-- Node 2 -->
      <g transform="rotate(72)">
        <line x1="90" y1="0" x2="160" y2="0" stroke="#6366f1" stroke-width="2"/>
        <circle cx="180" cy="0" r="20" fill="white" stroke="#6366f1" stroke-width="2"/>
      </g>
      
      <!-- Node 3 -->
      <g transform="rotate(144)">
        <line x1="90" y1="0" x2="160" y2="0" stroke="#6366f1" stroke-width="2"/>
        <circle cx="180" cy="0" r="20" fill="white" stroke="#6366f1" stroke-width="2"/>
      </g>
      
      <!-- Node 4 -->
      <g transform="rotate(216)">
        <line x1="90" y1="0" x2="160" y2="0" stroke="#6366f1" stroke-width="2"/>
        <circle cx="180" cy="0" r="20" fill="white" stroke="#6366f1" stroke-width="2"/>
      </g>
      
      <!-- Node 5 -->
      <g transform="rotate(288)">
        <line x1="90" y1="0" x2="160" y2="0" stroke="#6366f1" stroke-width="2"/>
        <circle cx="180" cy="0" r="20" fill="white" stroke="#6366f1" stroke-width="2"/>
      </g>
    </g>
    
    <!-- Decorative Elements -->
    <g id="decorations">
      <circle cx="0" cy="0" r="60" fill="none" stroke="#818cf8" stroke-width="1" stroke-dasharray="4 4"/>
      <circle cx="0" cy="0" r="40" fill="none" stroke="#818cf8" stroke-width="1" stroke-dasharray="4 4"/>
    </g>
  </g>
  
  <!-- Floating Particles -->
  <g id="particles">
    <circle cx="100" cy="100" r="4" fill="#6366f1"/>
    <circle cx="700" cy="500" r="4" fill="#6366f1"/>
    <circle cx="200" cy="400" r="4" fill="#818cf8"/>
    <circle cx="600" cy="200" r="4" fill="#818cf8"/>
  </g>
</svg>
